<svg xmlns="http://www.w3.org/2000/svg" viewBox="0 0 24 24" focusable="false" aria-hidden="true"><path fill-rule="evenodd" clip-rule="evenodd" d="M12.002 4C11.4497 4 11.002 4.44772 11.002 5C11.002 5.55228 11.4497 6 12.002 6C12.5542 6 13.002 5.55228 13.002 5C13.002 4.44772 12.5542 4 12.002 4ZM9.00195 5C9.00195 3.34315 10.3451 2 12.002 2C13.6588 2 15.002 3.34315 15.002 5C15.002 6.30623 14.1671 7.41747 13.0019 7.8293V8.5828C13.4503 8.65773 13.8922 8.78342 14.319 8.95985L19.9492 11.2903L19.9517 11.2913C20.1346 11.3664 20.302 11.4725 20.4469 11.6042C20.7759 11.7679 21.002 12.1075 21.002 12.5V17.2268C21.0116 17.4774 20.9667 17.7272 20.8703 17.959C20.7087 18.348 20.4087 18.6633 20.0283 18.8442L20.0261 18.8452L14.5641 21.4252C13.763 21.8036 12.888 22 12.002 22C11.116 22 10.241 21.8037 9.43985 21.4252L3.97668 18.8446C3.66495 18.6969 3.40537 18.4581 3.23222 18.1597C3.06692 17.8749 2.98782 17.5485 3.00395 17.2203L3.00214 12.9411C3.00009 12.9005 2.99951 12.8596 3.00041 12.8187C3.00075 12.8032 3.00131 12.7877 3.00207 12.7723L3.00196 12.5004C3.00179 12.1104 3.22494 11.7724 3.55059 11.6074C3.69899 11.4719 3.87112 11.3632 4.05945 11.2874C4.06978 11.2832 4.08015 11.2792 4.09057 11.2754L9.68448 8.96002C10.1113 8.78359 10.5536 8.65773 11.0019 8.5828V7.82929C9.83675 7.41744 9.00195 6.30621 9.00195 5ZM5.00296 14.8665L5.0039 17.118L10.2941 19.6168C10.8281 19.8691 11.4114 20 12.002 20C12.5925 20 13.1758 19.8691 13.7098 19.6168L19.002 17.117V14.866L14.559 16.9346C13.7581 17.3069 12.8851 17.5001 12.0019 17.5001C11.1187 17.5001 10.2462 17.3071 9.44532 16.9348L5.00296 14.8665ZM10.4494 10.808C10.63 10.7333 10.8147 10.6722 11.0019 10.6247V13C11.0019 13.5523 11.4496 14 12.0019 14C12.5542 14 13.0019 13.5523 13.0019 13V10.6247C13.1892 10.6722 13.3743 10.7335 13.5549 10.8081L18.5438 12.8732L13.7153 15.1212C13.1786 15.3708 12.5938 15.5001 12.0019 15.5001C11.41 15.5001 10.8253 15.3708 10.2885 15.1212L5.46001 12.8732L10.4494 10.808Z" fill="#ffffff"/></svg>