<svg xmlns="http://www.w3.org/2000/svg" viewBox="0 0 24 24" focusable="false" aria-hidden="true"><path fill-rule="evenodd" clip-rule="evenodd" d="M13.8556 2.01042C14.1999 1.96018 14.5455 2.09248 14.7682 2.35976C17.2757 5.36878 20 9.21266 20 13.7999C20 16.1453 19.1579 18.2104 17.6483 19.6893C16.1396 21.1674 14.0258 21.9999 11.5882 21.9999C9.03924 21.9999 7.10704 20.8282 5.8406 19.1449C4.5948 17.489 4 15.3564 4 13.3499C4 11.317 4.57968 9.76054 5.47779 8.52458C6.35873 7.31224 7.51181 6.4571 8.5693 5.76369C8.8326 5.59104 9.16183 5.55248 9.4579 5.65961C9.75396 5.76673 9.98229 6.00704 10.0741 6.3082C10.2241 6.79976 10.4331 7.25547 10.6343 7.58479C10.8629 7.30707 11.0942 6.94482 11.3582 6.44182C11.7901 5.61877 12.2669 4.50591 12.9585 2.89162C12.9985 2.79812 13.0393 2.70293 13.0809 2.60602C13.2179 2.28623 13.5113 2.06066 13.8556 2.01042ZM14.263 4.92165C13.8332 5.91424 13.4713 6.71911 13.1291 7.37126C12.6171 8.34673 12.1033 9.07347 11.3801 9.63813C10.7888 10.0998 10.1528 9.85682 9.85364 9.6654C9.55424 9.47384 9.31149 9.18921 9.12778 8.93146C8.96402 8.70171 8.80589 8.43417 8.66045 8.14396C8.063 8.60336 7.52787 9.10557 7.09574 9.70026C6.44973 10.5893 6 11.7329 6 13.3499C6 14.9936 6.49344 16.6859 7.43881 17.9425C8.36355 19.1717 9.72547 19.9999 11.5882 19.9999C13.5624 19.9999 15.1545 19.3326 16.2487 18.2606C17.3421 17.1895 18 15.6546 18 13.7999C18 10.5224 16.3184 7.58246 14.263 4.92165Z" fill="#FE4365"/><path fill-rule="evenodd" clip-rule="evenodd" d="M15 17.8C15 19.6667 13.7143 21 11.8235 21C9.93277 21 9 19.2222 9 17.6C9 15.9778 9.88235 15.2 10.7647 14.6C10.9412 15.2 11.2952 15.742 11.4706 15.6C11.9549 15.2078 12.2143 14.5555 12.8571 13C13.9286 14.3334 15 15.9333 15 17.8Z" fill="#FE4365"/></svg>